<?xml version="1.0" standalone="no"?>
<!DOCTYPE svg PUBLIC "-//W3C//DTD SVG 20010904//EN"
 "http://www.w3.org/TR/2001/REC-SVG-20010904/DTD/svg10.dtd">
<svg version="1.0" xmlns="http://www.w3.org/2000/svg"
 width="494.000000pt" height="505.000000pt" viewBox="0 0 494.000000 505.000000"
 preserveAspectRatio="xMidYMid meet">

<g transform="translate(0.000000,505.000000) scale(0.100000,-0.100000)"
fill="#000000" stroke="none">
<path d="M2410 4930 c-14 -4 -73 -8 -132 -9 -59 -1 -110 -5 -113 -11 -3 -5
-32 -10 -64 -10 -74 0 -162 -15 -233 -42 -34 -12 -69 -18 -85 -15 -29 6 -102
-17 -184 -59 -26 -13 -56 -24 -66 -24 -11 0 -28 -9 -38 -20 -10 -11 -29 -20
-42 -20 -14 0 -23 -6 -23 -16 0 -10 -6 -14 -14 -11 -25 10 -119 -30 -156 -66
-19 -19 -47 -37 -62 -41 -15 -3 -43 -22 -62 -40 -18 -19 -46 -41 -62 -49 -16
-9 -36 -25 -44 -36 -8 -12 -20 -21 -26 -21 -6 0 -37 -24 -68 -52 -30 -29 -78
-71 -106 -93 -44 -35 -90 -90 -90 -109 0 -3 6 -6 13 -6 6 0 19 -5 27 -10 12
-8 6 -19 -36 -62 -282 -294 -497 -718 -578 -1143 -40 -209 -51 -494 -27 -690
82 -681 434 -1267 996 -1656 349 -242 823 -396 1270 -412 57 -2 70 -5 73 -19
5 -26 -41 -33 -91 -14 -77 29 -127 16 -90 -23 15 -16 39 -20 139 -26 91 -6
127 -4 145 6 13 7 52 13 87 13 34 0 62 2 62 5 0 3 20 6 44 6 29 0 51 6 65 19
16 15 29 17 62 12 31 -5 46 -3 59 9 12 11 45 18 96 22 55 4 89 13 118 29 25
15 58 24 83 24 29 0 46 6 55 19 22 30 73 50 148 57 49 5 81 14 100 28 87 64
150 106 158 106 5 0 39 23 75 50 36 28 70 50 75 50 5 0 51 47 101 104 51 57
106 111 124 120 18 8 52 35 74 60 23 25 53 51 67 57 14 7 28 20 31 30 4 10 21
36 38 58 48 60 70 92 91 134 10 20 31 46 47 58 16 11 29 25 29 30 0 15 50 118
61 124 5 4 9 17 9 29 0 13 9 30 20 37 19 14 131 256 144 314 4 17 13 44 20 60
24 56 36 101 36 135 0 18 4 47 9 64 6 17 17 80 26 141 9 60 19 112 24 115 13
9 14 296 1 332 -8 23 -9 48 -3 83 7 38 5 72 -8 140 -10 50 -22 130 -27 178 -8
67 -15 94 -31 111 -14 15 -21 35 -21 62 0 21 -7 53 -16 69 -9 17 -29 75 -45
130 -16 55 -34 108 -40 119 -33 57 -55 98 -100 185 -49 96 -60 113 -112 187
-15 21 -59 88 -98 147 -39 60 -81 113 -93 119 -11 5 -59 54 -106 109 -46 54
-90 99 -97 99 -7 0 -34 20 -61 44 -27 24 -61 46 -76 50 -16 4 -31 17 -36 32
-6 14 -24 33 -41 42 -17 9 -45 27 -63 39 -17 13 -46 30 -63 38 -18 8 -33 20
-33 25 0 6 -7 10 -16 10 -9 0 -53 22 -98 49 -44 27 -92 52 -106 56 -14 4 -46
18 -72 31 -26 13 -58 24 -72 24 -13 0 -26 6 -29 14 -3 7 -35 21 -72 30 -37 9
-85 25 -108 35 -47 22 -172 45 -188 35 -6 -3 -19 2 -29 11 -16 14 -30 17 -69
12 -35 -4 -53 -2 -61 8 -7 9 -51 15 -138 20 -70 3 -134 8 -142 10 -8 1 -26 -1
-40 -5z m271 -1488 c8 -15 53 -91 98 -170 l83 -142 -88 -153 c-48 -83 -92
-160 -98 -169 -10 -16 -31 -18 -202 -18 l-192 0 -22 38 c-78 130 -170 294
-170 302 0 6 20 43 43 83 24 39 67 114 96 165 l53 92 191 0 192 0 16 -28z
m318 -169 c45 -77 81 -144 81 -147 0 -3 -30 -57 -67 -120 -38 -63 -76 -129
-85 -146 -21 -38 -31 -33 -64 31 l-25 50 56 94 55 94 -56 95 -55 95 17 33 c29
56 47 79 55 71 4 -4 44 -72 88 -150z m-917 94 l27 -47 -55 -94 c-62 -107 -64
-87 13 -214 l44 -73 -33 -54 c-18 -30 -35 -55 -38 -55 -6 0 -164 277 -168 295
-4 18 159 296 171 292 6 -2 24 -25 39 -50z m-916 -927 c11 -30 50 -129 85
-219 l64 -164 5 219 5 219 85 0 85 0 3 -452 2 -453 -94 0 -94 0 -27 73 c-15
39 -36 91 -46 114 -11 23 -19 45 -19 48 0 3 -33 90 -74 193 -41 103 -95 241
-120 307 -26 66 -51 128 -56 137 -20 35 -12 39 82 36 l92 -3 22 -55z m684 -25
c0 -82 -1 -85 -23 -85 -46 0 -47 -9 -47 -285 0 -276 1 -285 47 -285 22 0 23
-3 23 -85 l0 -85 -63 0 -63 0 -57 58 -57 58 0 334 0 334 62 63 c62 63 63 63
120 63 l58 0 0 -85z m237 23 l63 -62 0 -330 0 -330 -62 -63 -62 -63 -63 0 -63
0 0 85 0 85 28 0 c51 0 52 4 52 285 0 281 -1 285 -52 285 l-28 0 0 85 0 85 62
0 62 0 63 -62z m343 -288 l0 -350 -85 0 -85 0 0 350 0 350 85 0 85 0 0 -350z
m807 90 c28 -140 60 -299 71 -352 l19 -98 -171 -2 -170 -3 -12 -50 c-7 -27
-15 -71 -19 -97 l-6 -48 -90 0 -90 0 7 38 c3 20 14 73 24 117 10 44 23 110 30
148 l12 67 138 0 137 0 -21 104 c-12 58 -24 107 -27 110 -3 3 -13 -35 -23 -84
l-19 -90 -82 0 c-45 0 -84 2 -87 5 -3 3 -2 22 2 43 4 20 26 128 49 240 22 111
41 205 41 208 0 2 53 3 117 2 l118 -3 52 -255z m415 217 c73 -181 148 -376
150 -388 1 -8 5 85 8 206 l5 220 88 3 87 3 0 -456 0 -456 -92 3 -93 3 -28 70
c-16 39 -46 115 -67 170 -45 116 -91 233 -183 470 -37 94 -67 176 -67 183 0 8
26 12 88 12 l87 0 17 -43z m-2672 -128 c0 -10 31 -90 121 -317 28 -71 29 -79
29 -248 l0 -174 -85 0 -85 0 0 375 c0 243 4 375 10 375 6 0 10 -5 10 -11z
m2508 -44 c5 -16 40 -106 76 -199 l66 -170 0 -163 0 -163 -85 0 -85 0 0 372
c0 209 4 368 9 363 4 -6 13 -23 19 -40z m-1058 -610 l0 -85 -85 0 -85 0 0 85
0 85 85 0 85 0 0 -85z m258 -3 l3 -83 -108 3 -108 3 -3 69 c-2 38 -1 75 2 83
4 11 28 13 108 11 l103 -3 3 -83z m664 -7 l15 -75 -87 0 -87 0 -12 58 c-7 31
-15 65 -17 75 -5 15 4 17 84 17 l89 0 15 -75z"/>
<path d="M2312 3418 c4 -10 47 -14 160 -16 132 -2 157 0 162 13 5 13 -16 15
-160 15 -128 0 -165 -3 -162 -12z"/>
<path d="M2326 3317 c-10 -17 -34 -61 -54 -97 -19 -36 -39 -71 -45 -78 -7 -8
5 -36 38 -95 27 -45 56 -94 64 -110 l16 -27 130 2 130 3 61 105 c70 121 72 98
-18 248 l-49 82 -127 0 -127 0 -19 -33z"/>
<path d="M2310 2840 c-11 -20 -8 -20 160 -20 93 0 170 4 170 8 0 26 -30 32
-172 32 -137 0 -148 -1 -158 -20z"/>
<path d="M545 4005 c-3 -8 -7 -22 -10 -30 -6 -19 19 -19 35 0 13 16 7 45 -10
45 -6 0 -13 -7 -15 -15z"/>
<path d="M465 1126 c21 -32 37 -34 33 -3 -2 14 -11 23 -26 25 -23 4 -23 3 -7
-22z"/>
<path d="M530 1042 c0 -7 15 -28 33 -47 17 -18 40 -45 51 -60 l18 -27 24 23
23 22 -52 24 c-28 13 -62 36 -74 51 -13 15 -23 21 -23 14z"/>
<path d="M747 806 c-5 -13 11 -31 56 -65 29 -22 19 3 -17 42 -24 27 -35 33
-39 23z"/>
<path d="M1400 350 c0 -13 11 -13 30 0 12 8 11 10 -7 10 -13 0 -23 -4 -23 -10z"/>
<path d="M1890 215 c0 -14 -7 -16 -51 -10 -33 5 -49 4 -46 -2 4 -6 32 -13 64
-16 32 -3 68 -9 81 -13 21 -6 23 -4 20 22 -2 25 -8 29 -35 32 -25 3 -33 -1
-33 -13z"/>
</g>
</svg>
